<?xml version="1.0" encoding="iso-8859-1"?>
<!-- Generator: Adobe Illustrator 18.1.1, SVG Export Plug-In . SVG Version: 6.00 Build 0)  -->
<svg xmlns="http://www.w3.org/2000/svg" xmlns:xlink="http://www.w3.org/1999/xlink" version="1.1" id="Capa_1" x="0px" y="0px" viewBox="0 0 16 16" style="enable-background:new 0 0 16 16;" xml:space="preserve" width="512px" height="512px">
<g>
	<path d="M9.5,5h1v9h-1V5z" fill="#000000"/>
	<path d="M7.5,5h1v9h-1V5z" fill="#000000"/>
	<path d="M12.5,2.99V1.01C12.5,0.452,12.054,0,11.503,0H4.497C3.946,0,3.5,0.443,3.5,1.01v1.98V3H3.496H1.5v1   h1v11.002C2.5,15.553,2.944,16,3.496,16h9.008c0.551,0,0.996-0.447,0.996-0.998V4h1V3h-2V2.99z M4.5,2c0-0.553,0.447-1,1-1h5   c0.553,0,1,0.447,1,1v1h-7V2z M12.5,15h-9V4h9V15z" fill="#000000"/>
	<path d="M5.5,5h1v9h-1V5z" fill="#000000"/>
</g>
<g>
</g>
<g>
</g>
<g>
</g>
<g>
</g>
<g>
</g>
<g>
</g>
<g>
</g>
<g>
</g>
<g>
</g>
<g>
</g>
<g>
</g>
<g>
</g>
<g>
</g>
<g>
</g>
<g>
</g>
</svg>
